<svg width="240" height="135" viewBox="0 0 240 135" fill="none" xmlns="http://www.w3.org/2000/svg">
<path d="M91.4459 0C99.8421 0.365053 107.63 0.54758 114.809 0.54758C120.528 0.54758 114.809 0.613936 128.158 0.614101L129.046 3.7418C125.943 4.95864 122.871 7.36191 119.829 10.9516C116.787 14.4805 114.11 19.4999 111.798 26.0101L72.3718 132.697C70.9725 132.575 68.7822 132.514 65.8009 132.514C62.9413 132.514 60.8422 132.575 59.5037 132.697L11.773 15.6973C10.1911 11.56 8.33539 8.57876 6.20591 6.75349C4.13727 4.86738 2.06864 3.86348 0 3.7418V0C7.4836 0.365053 16.975 0.54758 28.4742 0.54758C41.1902 0.54758 50.6512 0.365053 56.8571 0V3.7418C52.1722 3.92432 48.7955 4.50233 46.7268 5.4758C44.7191 6.38844 43.7152 8.12244 43.7152 10.6778C43.7152 12.6248 44.4757 15.5452 45.9967 19.4391L78.9428 103.128L101.941 41.1598C105.409 31.3642 107.143 23.7589 107.143 18.3439C107.143 13.3549 105.805 9.73476 103.128 7.4836C100.511 5.17159 96.6175 3.92432 91.4459 3.7418V0Z" fill="url(#paint0_linear)"/>
<path d="M239.405 124.118C235.997 127.951 232.347 130.72 228.453 132.423C224.62 134.127 219.996 134.979 214.581 134.979C207.402 134.979 201.713 133.457 197.515 130.415C193.317 127.373 190.579 122.141 189.301 114.718L185.924 96.1003C184.829 90.0769 183.673 85.24 182.456 81.5894C181.3 77.8781 179.597 74.9576 177.345 72.8282C175.155 70.6378 172.235 69.5427 168.584 69.5427H156.446V112.528C156.446 117.213 156.781 120.62 157.45 122.749C158.119 124.879 159.397 126.339 161.283 127.13C163.169 127.921 166.211 128.408 170.409 128.59V132.332C163.778 131.967 154.377 131.784 142.209 131.784C128.885 131.784 119.059 131.967 112.731 132.332V128.59C116.868 128.408 119.88 127.921 121.766 127.13C123.652 126.339 124.93 124.879 125.599 122.749C126.329 120.62 126.694 117.213 126.694 112.528V19.8041C126.694 15.1193 126.329 11.7121 125.599 9.58265C124.93 7.45317 123.011 7.72696 120.415 10.3229C118.529 9.53195 116.868 3.92432 112.731 3.7418L110.291 0.54758C116.618 0.912634 128.52 0.54758 141.114 0.54758C146.103 0.54758 151.64 0.486738 157.724 0.365053C163.808 0.243369 168.037 0.182527 170.409 0.182527C187.567 0.182527 200.496 3.01169 209.196 8.67002C217.897 14.2675 222.247 22.2683 222.247 32.6723C222.247 38.2089 220.939 43.4718 218.323 48.4608C215.706 53.4499 211.265 57.8001 204.998 61.5115C198.731 65.162 190.457 67.5957 180.175 68.8126H180.357C187.902 69.4818 194.077 70.7595 198.884 72.6456C203.751 74.5317 207.554 77.1784 210.292 80.5855C213.029 83.9319 214.946 88.2212 216.041 93.4537L220.33 112.71C221.365 117.76 222.521 121.259 223.798 123.206C225.137 125.152 226.993 126.126 229.366 126.126C230.826 126.065 232.103 125.7 233.199 125.031C234.294 124.362 235.511 123.297 236.849 121.837L239.405 124.118ZM164.477 65.8009C171.474 65.8009 176.92 64.4624 180.813 61.7853C184.768 59.1082 187.476 55.5185 188.936 51.0162C190.457 46.5139 191.217 41.0989 191.217 34.7713C191.217 24.5498 189.392 16.8229 185.742 11.5904C182.152 6.35801 176.25 3.7418 168.037 3.7418C164.69 3.7418 162.196 4.19811 160.553 5.11075C158.971 5.96254 157.876 7.51402 157.267 9.76518C156.72 11.9555 156.446 15.3018 156.446 19.8041V65.8009H164.477Z" fill="url(#paint1_linear)"/>
<defs>
<linearGradient id="paint0_linear" x1="105.099" y1="54.4537" x2="229.704" y2="54.4537" gradientUnits="userSpaceOnUse">
<stop stop-color="#11B370"/>
<stop offset="1" stop-color="#0F9960"/>
</linearGradient>
<linearGradient id="paint1_linear" x1="105.099" y1="54.4537" x2="229.704" y2="54.4537" gradientUnits="userSpaceOnUse">
<stop stop-color="#11B370"/>
<stop offset="1" stop-color="#0F9960"/>
</linearGradient>
</defs>
</svg>
